<svg width="1440" height="320" viewBox="0 0 1440 320" fill="none" xmlns="http://www.w3.org/2000/svg">
<path d="M0 32L30 74.7C60 117 120 203 180 213.3C240 224 300 160 360 138.7C420 117 480 139 540 133.3C600 128 660 96 720 96C780 96 840 128 900 154.7C960 181 1020 203 1080 218.7C1140 235 1200 245 1260 229.3C1320 213 1380 171 1410 149.3L1440 128V320H1410C1380 320 1320 320 1260 320C1200 320 1140 320 1080 320C1020 320 960 320 900 320C840 320 780 320 720 320C660 320 600 320 540 320C480 320 420 320 360 320C300 320 240 320 180 320C120 320 60 320 30 320H0V32Z" fill="#005FB7"/>
</svg>
