<svg width="164" height="189" viewBox="0 0 164 189" fill="none" xmlns="http://www.w3.org/2000/svg">
<g clip-path="url(#clip0_540:2)">
<path d="M10.04 102.95L18.29 96.06L40.42 124.52L40.99 125.14H53.41L51.04 122.57L25.5 90.57L50.33 68.43L53.54 65.71H41.12L40.56 66.18L10.04 93.14V65.71H0V125.14H10.04V102.95Z" fill="white"/>
<path d="M43.71 161.74C43.71 174.14 38.95 180.01 26.71 180.01C14.47 180.01 9.71 174.14 9.71 161.74V128.87H0V164.69C0 179.62 9.49 188.88 26.76 188.88C44.03 188.88 53.49 179.62 53.49 164.69V136.54H71.34V188.92H81.34V136.54H98.34V188.92H108.34V136.54H122.51V128.87H43.71V161.74Z" fill="white"/>
<path d="M109.48 66.75L90.11 112.66L70.42 66.74L69.96 65.71H57.33V125.14H67.26V82.95L85.27 124.09L85.72 125.14H94.17L94.63 124.09L112.54 82.99V125.14H122.48V65.71H109.94L109.48 66.75Z" fill="white"/>
<path d="M114.34 4.11C114.336 4.91806 114.093 5.70684 113.641 6.3768C113.189 7.04676 112.549 7.56788 111.801 7.87437C111.054 8.18087 110.232 8.25902 109.44 8.09895C108.648 7.93889 107.921 7.54779 107.351 6.97501C106.781 6.40222 106.393 5.67342 106.237 4.88058C106.081 4.08775 106.163 3.26642 106.473 2.52023C106.783 1.77405 107.308 1.13646 107.98 0.687927C108.652 0.23939 109.442 9.66131e-06 110.25 0C110.788 0.00131162 111.321 0.108661 111.818 0.315918C112.315 0.523175 112.766 0.826282 113.146 1.20793C113.526 1.58958 113.827 2.0423 114.032 2.54024C114.237 3.03818 114.341 3.57158 114.34 4.11" fill="white"/>
<path d="M114.34 16.4301C114.336 17.2381 114.093 18.0269 113.641 18.6969C113.189 19.3668 112.549 19.8879 111.801 20.1944C111.054 20.5009 110.232 20.5791 109.44 20.419C108.648 20.259 107.921 19.8679 107.351 19.2951C106.781 18.7223 106.393 17.9935 106.237 17.2007C106.081 16.4078 106.163 15.5865 106.473 14.8403C106.783 14.0941 107.308 13.4565 107.98 13.008C108.652 12.5595 109.442 12.3201 110.25 12.3201C110.788 12.3214 111.321 12.4287 111.818 12.636C112.315 12.8432 112.766 13.1464 113.146 13.528C113.526 13.9096 113.827 14.3624 114.032 14.8603C114.237 15.3582 114.341 15.8916 114.34 16.4301Z" fill="white"/>
<path d="M114.34 41.07C114.336 41.878 114.093 42.6668 113.641 43.3368C113.189 44.0067 112.549 44.5278 111.801 44.8343C111.054 45.1408 110.232 45.219 109.44 45.0589C108.648 44.8989 107.921 44.5078 107.351 43.935C106.781 43.3622 106.393 42.6334 106.237 41.8406C106.081 41.0477 106.163 40.2264 106.473 39.4802C106.783 38.734 107.308 38.0964 107.98 37.6479C108.652 37.1994 109.442 36.96 110.25 36.96C111.337 36.9652 112.377 37.4006 113.143 38.1708C113.91 38.941 114.34 39.9834 114.34 41.07" fill="white"/>
<path d="M114.34 53.39C114.336 54.1981 114.093 54.9869 113.641 55.6568C113.189 56.3268 112.549 56.8479 111.801 57.1544C111.054 57.4609 110.232 57.539 109.44 57.379C108.648 57.2189 107.921 56.8278 107.351 56.255C106.781 55.6823 106.393 54.9534 106.237 54.1606C106.081 53.3678 106.163 52.5464 106.473 51.8003C106.783 51.0541 107.308 50.4165 107.98 49.968C108.652 49.5194 109.442 49.28 110.25 49.28C110.788 49.2813 111.321 49.3887 111.818 49.5959C112.315 49.8032 112.766 50.1063 113.146 50.488C113.526 50.8696 113.827 51.3223 114.032 51.8203C114.237 52.3182 114.341 52.8516 114.34 53.39Z" fill="white"/>
<path d="M114.34 28.7499C114.34 29.5628 114.099 30.3574 113.647 31.0333C113.196 31.7092 112.554 32.236 111.803 32.547C111.052 32.8581 110.225 32.9395 109.428 32.7809C108.631 32.6223 107.899 32.2309 107.324 31.6561C106.749 31.0813 106.358 30.349 106.199 29.5517C106.04 28.7545 106.122 27.9281 106.433 27.1771C106.744 26.4261 107.271 25.7842 107.947 25.3326C108.622 24.8809 109.417 24.6399 110.23 24.6399C110.77 24.6386 111.305 24.744 111.804 24.9501C112.304 25.1561 112.757 25.4588 113.139 25.8408C113.521 26.2227 113.824 26.6763 114.03 27.1755C114.236 27.6748 114.341 28.2098 114.34 28.7499" fill="white"/>
<path d="M102.13 28.7499C102.13 29.5628 101.889 30.3574 101.437 31.0333C100.986 31.7092 100.344 32.236 99.5928 32.547C98.8418 32.8581 98.0154 32.9395 97.2181 32.7809C96.4209 32.6223 95.6886 32.2309 95.1138 31.6561C94.539 31.0813 94.1475 30.349 93.9889 29.5517C93.8304 28.7545 93.9118 27.9281 94.2228 27.1771C94.5339 26.4261 95.0607 25.7842 95.7366 25.3326C96.4125 24.8809 97.2071 24.6399 98.02 24.6399C98.5601 24.6386 99.0951 24.744 99.5944 24.9501C100.094 25.1561 100.547 25.4588 100.929 25.8408C101.311 26.2227 101.614 26.6763 101.82 27.1755C102.026 27.6748 102.131 28.2098 102.13 28.7499" fill="white"/>
<path d="M89.88 28.7499C89.88 29.5628 89.6389 30.3574 89.1873 31.0333C88.7357 31.7092 88.0938 32.236 87.3428 32.547C86.5918 32.8581 85.7654 32.9395 84.9682 32.7809C84.1709 32.6223 83.4386 32.2309 82.8638 31.6561C82.289 31.0813 81.8975 30.349 81.7389 29.5517C81.5804 28.7545 81.6618 27.9281 81.9728 27.1771C82.2839 26.4261 82.8107 25.7842 83.4866 25.3326C84.1625 24.8809 84.9571 24.6399 85.77 24.6399C86.86 24.6399 87.9054 25.0729 88.6762 25.8437C89.447 26.6144 89.88 27.6599 89.88 28.7499Z" fill="white"/>
<path d="M138.89 28.7499C138.89 29.5628 138.649 30.3574 138.197 31.0333C137.746 31.7092 137.104 32.236 136.353 32.547C135.602 32.8581 134.775 32.9395 133.978 32.7809C133.181 32.6223 132.449 32.2309 131.874 31.6561C131.299 31.0813 130.908 30.349 130.749 29.5517C130.59 28.7545 130.672 27.9281 130.983 27.1771C131.294 26.4261 131.821 25.7842 132.497 25.3326C133.172 24.8809 133.967 24.6399 134.78 24.6399C135.32 24.6386 135.855 24.744 136.354 24.9501C136.854 25.1561 137.307 25.4588 137.689 25.8408C138.071 26.2227 138.374 26.6763 138.58 27.1755C138.786 27.6748 138.891 28.2098 138.89 28.7499" fill="white"/>
<path d="M138.89 41.07C138.89 41.8828 138.649 42.6775 138.197 43.3534C137.746 44.0292 137.104 44.556 136.353 44.8671C135.602 45.1782 134.775 45.2596 133.978 45.101C133.181 44.9424 132.449 44.551 131.874 43.9762C131.299 43.4014 130.908 42.669 130.749 41.8718C130.59 41.0745 130.672 40.2481 130.983 39.4971C131.294 38.7461 131.821 38.1042 132.497 37.6526C133.172 37.201 133.967 36.96 134.78 36.96C135.87 36.96 136.915 37.393 137.686 38.1638C138.457 38.9345 138.89 39.9799 138.89 41.07Z" fill="white"/>
<path d="M126.63 28.7499C126.63 29.5632 126.389 30.3582 125.937 31.0343C125.485 31.7104 124.842 32.2372 124.09 32.548C123.339 32.8588 122.512 32.9396 121.714 32.7802C120.917 32.6208 120.185 32.2283 119.61 31.6526C119.036 31.0768 118.645 30.3435 118.488 29.5456C118.33 28.7477 118.413 27.921 118.726 27.1701C119.038 26.4193 119.567 25.7781 120.244 25.3277C120.921 24.8773 121.717 24.6379 122.53 24.6399C123.069 24.6399 123.603 24.7463 124.101 24.953C124.599 25.1596 125.052 25.4625 125.433 25.8443C125.814 26.2261 126.115 26.6792 126.321 27.1778C126.526 27.6764 126.631 28.2106 126.63 28.7499" fill="white"/>
<path d="M151.13 53.39C151.13 54.2033 150.889 54.9984 150.437 55.6745C149.985 56.3506 149.342 56.8773 148.59 57.1881C147.839 57.4989 147.012 57.5797 146.214 57.4203C145.417 57.2609 144.685 56.8685 144.11 56.2927C143.536 55.7169 143.145 54.9836 142.988 54.1857C142.83 53.3878 142.913 52.5611 143.226 51.8103C143.538 51.0594 144.067 50.4182 144.744 49.9678C145.421 49.5174 146.217 49.2781 147.03 49.28C147.57 49.2787 148.104 49.3842 148.603 49.5904C149.102 49.7966 149.555 50.0994 149.936 50.4815C150.317 50.8635 150.618 51.3172 150.823 51.8164C151.028 52.3156 151.133 52.8504 151.13 53.39Z" fill="white"/>
<path d="M138.89 53.39C138.89 54.2029 138.649 54.9975 138.197 55.6734C137.746 56.3493 137.104 56.8761 136.353 57.1872C135.602 57.4983 134.775 57.5796 133.978 57.4211C133.181 57.2625 132.449 56.871 131.874 56.2962C131.299 55.7215 130.908 54.9891 130.749 54.1919C130.59 53.3946 130.672 52.5682 130.983 51.8172C131.294 51.0662 131.821 50.4243 132.497 49.9727C133.172 49.5211 133.967 49.28 134.78 49.28C135.32 49.2787 135.855 49.3841 136.354 49.5902C136.854 49.7963 137.307 50.099 137.689 50.4809C138.071 50.8628 138.374 51.3164 138.58 51.8157C138.786 52.3149 138.891 52.8499 138.89 53.39" fill="white"/>
<path d="M126.63 53.39C126.63 54.2033 126.389 54.9984 125.937 55.6745C125.485 56.3506 124.842 56.8773 124.09 57.1881C123.339 57.4989 122.512 57.5797 121.714 57.4203C120.917 57.2609 120.185 56.8685 119.61 56.2927C119.036 55.7169 118.645 54.9836 118.488 54.1857C118.33 53.3878 118.413 52.5611 118.726 51.8103C119.038 51.0594 119.567 50.4182 120.244 49.9678C120.921 49.5174 121.717 49.2781 122.53 49.28C123.069 49.28 123.603 49.3864 124.101 49.5931C124.599 49.7998 125.052 50.1027 125.433 50.4844C125.814 50.8662 126.115 51.3194 126.321 51.818C126.526 52.3165 126.631 52.8508 126.63 53.39Z" fill="white"/>
<path d="M163.39 53.39C163.39 54.2029 163.149 54.9975 162.697 55.6734C162.246 56.3493 161.604 56.8761 160.853 57.1872C160.102 57.4983 159.275 57.5796 158.478 57.4211C157.681 57.2625 156.949 56.871 156.374 56.2962C155.799 55.7215 155.408 54.9891 155.249 54.1919C155.09 53.3946 155.172 52.5682 155.483 51.8172C155.794 51.0662 156.321 50.4243 156.997 49.9727C157.672 49.5211 158.467 49.28 159.28 49.28C159.82 49.2787 160.355 49.3841 160.854 49.5902C161.354 49.7963 161.807 50.099 162.189 50.4809C162.571 50.8628 162.874 51.3164 163.08 51.8157C163.286 52.3149 163.391 52.8499 163.39 53.39Z" fill="white"/>
<path d="M138.89 65.7101C138.89 66.523 138.649 67.3176 138.197 67.9935C137.746 68.6694 137.104 69.1962 136.353 69.5072C135.602 69.8183 134.775 69.8997 133.978 69.7411C133.181 69.5825 132.449 69.1911 131.874 68.6163C131.299 68.0415 130.908 67.3092 130.749 66.5119C130.59 65.7147 130.672 64.8883 130.983 64.1373C131.294 63.3863 131.821 62.7444 132.497 62.2928C133.172 61.8411 133.967 61.6001 134.78 61.6001C135.87 61.6001 136.915 62.0331 137.686 62.8039C138.457 63.5747 138.89 64.6201 138.89 65.7101Z" fill="white"/>
<path d="M138.89 78.0299C138.89 78.8428 138.649 79.6374 138.197 80.3133C137.746 80.9892 137.104 81.516 136.353 81.8271C135.602 82.1381 134.775 82.2195 133.978 82.0609C133.181 81.9024 132.449 81.5109 131.874 80.9361C131.299 80.3613 130.908 79.629 130.749 78.8317C130.59 78.0345 130.672 77.2081 130.983 76.4571C131.294 75.7061 131.821 75.0642 132.497 74.6126C133.172 74.161 133.967 73.9199 134.78 73.9199C135.87 73.9199 136.915 74.3529 137.686 75.1237C138.457 75.8945 138.89 76.9399 138.89 78.0299Z" fill="white"/>
</g>
<defs>
<clipPath id="clip0_540:2">
<rect width="163.39" height="188.92" fill="white"/>
</clipPath>
</defs>
</svg>
